Coordinates
version=1
nRows=23
nColumns=27
inDegrees=yes

Units are S.I. units (second, meters, Newtons, ...)
If the header above contains a line with 'inDegrees', this indicates whether rotational values are in degrees (yes) or radians (no).

endheader
time	pelvis_rotation	pelvis_tilt	pelvis_list	pelvis_tx	pelvis_ty	pelvis_tz	hip_flexion_r	hip_adduction_r	hip_rotation_r	knee_angle_r	knee_rotation_r	knee_adduction_r	knee_angle_r_beta	ankle_angle_r	subtalar_angle_r	mtp_angle_r	hip_flexion_l	hip_adduction_l	hip_rotation_l	knee_angle_l	knee_rotation_l	knee_adduction_l	knee_angle_l_beta	ankle_angle_l	subtalar_angle_l	mtp_angle_l
      3.27500000	      5.10368020	    -35.23289096	      6.72724595	     -0.03341019	      0.52719942	     -1.17771890	    123.43416892	    -46.64006359	      8.12151280	     98.79997779	     -9.66321223	      9.73674628	      1.72438491	     17.72906293	     11.20625269	      0.00000000	    112.72127410	    -40.51219027	     -3.83000332	     92.53981235	     -9.59821576	     -9.77021753	      1.61512441	     15.18938956	     29.55317288	      0.00000000
      3.28000000	      5.51414779	    -35.21989640	      6.58304134	     -0.03282240	      0.52567002	     -1.17783565	    123.61889127	    -47.32377998	      7.97055672	     99.05477841	     -9.82333822	      9.86119107	      1.72883202	     17.83712464	     11.29474612	      0.00000000	    113.25468346	    -40.03663813	     -3.47852702	     92.83293324	     -9.78743817	     -9.87824051	      1.62024034	     15.29274414	     29.46970429	      0.00000000
      3.28500000	      5.32364784	    -35.19404745	      6.72891919	     -0.03272660	      0.52404851	     -1.17777873	    124.05395185	    -46.97565590	      8.43470117	     99.31369488	     -9.82461971	      9.86140985	      1.73335097	     17.84256723	     11.17921772	      0.00000000	    113.30148712	    -40.35001509	     -3.53054867	     93.06743768	     -9.79313007	     -9.87866072	      1.62433321	     15.37493788	     29.49400947	      0.00000000
      3.29000000	      4.75884180	    -35.20875712	      6.19859903	     -0.03300930	      0.52248721	     -1.17766855	    123.70657862	    -46.55467398	      8.10119347	     99.46111063	     -9.67869496	      9.73865900	      1.73592386	     17.89616287	     11.10144831	      0.00000000	    113.94898044	    -40.71166431	     -2.56991579	     93.36604991	     -9.62008293	     -9.77293832	      1.62954498	     15.40013784	     29.46401738	      0.00000000
      3.29500000	      5.45760187	    -35.14563036	      6.52380812	     -0.03233725	      0.52070785	     -1.17787710	    124.45469774	    -47.29144123	      8.68615456	     99.80953538	     -9.83046672	      9.86230813	      1.74200502	     18.03720861	     11.29612398	      0.00000000	    114.07893421	    -40.12127127	     -2.76115210	     93.63536791	     -9.80078109	     -9.87953110	      1.63424547	     15.50756601	     29.33031456	      0.00000000
      3.30000000	      5.36750300	    -35.08100236	      6.61107037	     -0.03219856	      0.51909226	     -1.17784283	    124.78842428	    -47.11121543	      9.06506772	    100.06353897	     -9.83219737	      9.86246522	      1.74643822	     18.07094915	     11.21881638	      0.00000000	    114.16635977	    -40.26679067	     -2.68663971	     93.87388530	     -9.80604453	     -9.87993140	      1.63840838	     15.61191684	     29.34726044	      0.00000000
      3.30500000	      4.97613405	    -35.01099019	      6.57278643	     -0.03235115	      0.51748577	     -1.17776904	    124.92798945	    -46.60750119	      9.40985704	    100.27592390	     -9.68949158	      9.73999737	      1.75014503	     18.11354457	     11.18459752	      0.00000000	    114.26353834	    -40.66153067	     -2.38440746	     94.10435600	     -9.64447720	     -9.77553313	      1.64243085	     15.73421842	     29.30563381	      0.00000000
      3.31000000	      5.37458253	    -35.03628260	      6.43918108	     -0.03179675	      0.51574399	     -1.17793663	    125.21677982	    -47.24502591	      9.35777479	    100.55316969	     -9.83734501	      9.86306411	      1.75498388	     18.22088412	     11.22404664	      0.00000000	    114.86193502	    -40.17063122	     -1.98911156	     94.43603527	     -9.81345108	     -9.88073308	      1.64821975	     15.80475264	     29.22143677	      0.00000000
      3.31500000	      4.87951517	    -34.95294783	      6.53742507	     -0.03200787	      0.51401318	     -1.17784717	    125.48325400	    -46.48624269	      9.91621495	    100.79018082	     -9.69758708	      9.74120312	      1.75912051	     18.24079491	     11.14102216	      0.00000000	    114.81493147	    -40.74003308	     -1.86905725	     94.67304187	     -9.65990306	     -9.77717206	      1.65235629	     15.90061806	     29.18589785	      0.00000000
      3.32000000	      5.32507784	    -34.91790973	      6.39654914	     -0.03140349	      0.51237937	     -1.17802534	    125.70691316	    -47.21605698	      9.84668869	    101.05079346	     -9.84149488	      9.86388429	      1.76366906	     18.34311737	     11.24269771	      0.00000000	    115.33451637	    -40.18538251	     -1.48946728	     94.97867073	     -9.82103724	     -9.88165980	      1.65769052	     15.97196669	     29.08042055	      0.00000000
      3.32500000	      4.81227983	    -34.85956795	      6.50382420	     -0.03160414	      0.51059537	     -1.17793715	    126.00552233	    -46.42453633	     10.41049307	    101.29595234	     -9.70560620	      9.74280140	      1.76794789	     18.37309421	     11.13275167	      0.00000000	    115.31275765	    -40.78220765	     -1.37233798	     95.22049264	     -9.67378904	     -9.77909486	      1.66191111	     16.08373291	     29.08555745	      0.00000000
      3.33000000	      5.28966161	    -34.81950699	      6.37089822	     -0.03095690	      0.50893873	     -1.17813606	    126.25480020	    -47.19700127	     10.37160076	    101.56076044	     -9.84553775	      9.86441704	      1.77256966	     18.47678000	     11.27404314	      0.00000000	    115.82748914	    -40.19352688	     -0.99839207	     95.53101657	     -9.82843402	     -9.88271764	      1.66733078	     16.14963885	     28.95135059	      0.00000000
      3.33500000	      5.07025907	    -34.73901390	      6.34925681	     -0.03069465	      0.50728070	     -1.17816441	    126.44454177	    -46.95959559	     10.58959880	    101.79873572	     -9.84699510	      9.86465495	      1.77672311	     18.53148934	     11.20087932	      0.00000000	    115.98513069	    -40.44918999	     -0.82065013	     95.81017731	     -9.83219787	     -9.88340540	      1.67220305	     16.24348950	     28.90715269	      0.00000000
      3.34000000	      4.63254099	    -34.71025759	      6.31617587	     -0.03087581	      0.50549904	     -1.17810342	    126.61832104	    -46.35068029	     10.95152657	    102.02793236	     -9.71596849	      9.74499466	      1.78072335	     18.55478486	     11.14251484	      0.00000000	    116.16688912	    -40.88208985	     -0.47504945	     96.06119437	     -9.69257136	     -9.78219052	      1.67658413	     16.33147264	     28.92815091	      0.00000000
      3.34500000	      5.31303824	    -34.69262801	      6.22809143	     -0.03019576	      0.50378360	     -1.17834781	    127.00152408	    -47.34197283	     11.02643104	    102.30826836	     -9.85125139	      9.86596325	      1.78561613	     18.65897403	     11.29848003	      0.00000000	    116.70336143	    -40.06532816	     -0.10648460	     96.36678957	     -9.83850850	     -9.88419550	      1.68191777	     16.40271736	     28.77476021	      0.00000000
      3.35000000	      4.58830312	    -34.60171034	      6.28650941	     -0.03033448	      0.50206887	     -1.17820457	    127.13638422	    -46.32621638	     11.45541234	    102.53238305	     -9.72274069	      9.74671386	      1.78952767	     18.68855504	     11.17297098	      0.00000000	    116.64898793	    -40.91468611	      0.01493555	     96.60201738	     -9.70499679	     -9.78401311	      1.68602327	     16.52571299	     28.85621482	      0.00000000
      3.35500000	      5.11461851	    -34.57386800	      6.15590528	     -0.02965103	      0.50036914	     -1.17839962	    127.43061222	    -47.14983492	     11.47169471	    102.80626042	     -9.85476176	      9.86660524	      1.79430774	     18.81727378	     11.32856277	      0.00000000	    117.17310832	    -40.27378369	      0.38744752	     96.91047919	     -9.84500951	     -9.88547851	      1.69140694	     16.59579312	     28.73217548	      0.00000000
      3.36000000	      4.52431604	    -34.50290823	      6.12522473	     -0.02971403	      0.49864896	     -1.17829946	    127.51224836	    -46.37302656	     11.78214368	    103.02322084	     -9.72997669	      9.74840560	      1.79809441	     18.86792713	     11.22198921	      0.00000000	    117.27050152	    -40.92207287	      0.67339373	     97.16024112	     -9.71595084	     -9.78639029	      1.69576611	     16.68724508	     28.80659587	      0.00000000
      3.36500000	      5.07467706	    -34.49020404	      6.02837626	     -0.02903184	      0.49692740	     -1.17846818	    127.87107248	    -47.19044798	     11.85869902	    103.29411827	     -9.85851507	      9.86778292	      1.80282246	     18.93551659	     11.34228470	      0.00000000	    117.78449189	    -40.27881775	      1.01386198	     97.46197371	     -9.85058005	     -9.88657115	      1.70103234	     16.72699987	     28.73183995	      0.00000000
      3.37000000	      4.98957837	    -34.41155257	      6.09657112	     -0.02867502	      0.49527171	     -1.17847964	    128.16846826	    -47.04425907	     12.21388386	    103.55271726	     -9.85987447	      9.86801699	      1.80733587	     19.02084612	     11.32265005	      0.00000000	    117.88852042	    -40.44508575	      1.10670809	     97.70883002	     -9.85356275	     -9.88731018	      1.70534079	     16.83744308	     28.74403931	      0.00000000
      3.37500000	      5.02198664	    -34.33368905	      5.99730746	     -0.02830247	      0.49362745	     -1.17852000	    128.30764296	    -47.16611541	     12.34789051	    103.78822094	     -9.86166283	      9.86839694	      1.81144618	     19.12318403	     11.32615205	      0.00000000	    118.17712392	    -40.36804941	      1.45206121	     97.96988131	     -9.85560284	     -9.88769642	      1.70989700	     16.92568310	     28.71387743	      0.00000000
      3.38000000	      4.47263710	    -34.27912225	      6.03401211	     -0.02838493	      0.49186800	     -1.17836742	    128.47503852	    -46.36468604	     12.74163900	    104.01580859	     -9.74293628	      9.75237443	      1.81541833	     19.11305276	     11.26880243	      0.00000000	    118.25849077	    -41.01364437	      1.68735247	     98.19961916	     -9.73507504	     -9.79077429	      1.71390668	     16.98270596	     28.86878889	      0.00000000
      3.38500000	      4.97883937	    -34.21867321	      5.84453427	     -0.02757068	      0.49025064	     -1.17852717	    128.67210354	    -47.22346794	     12.69819825	    104.27518586	     -9.86555425	      9.86985859	      1.81994532	     19.24904613	     11.39874576	      0.00000000	    118.76763003	    -40.39219103	      2.08805320	     98.50621083	     -9.86073327	     -9.88892094	      1.71925771	     17.07147504	     28.76135684	      0.00000000
